# xmcd
#
# Track frame offsets:
#	150
#	11717
#	22237
#	32280
#	46530
#	58625
#	71930
#	81770
#	93592
#	104437
#	118045
#	130732
#	140997
#	151082
#	164402
#	174497
#	187735
#	200855
#	211952
#	223290
#	236050
#	247315
#
# Disc length: 3460 seconds
# Revision: 0
# Processed by: cddbd v1.5.2PL0 Copyright (c) Steve Scherf et al.
# Submitted via: dBpowerAMP V12.0
#
DISCID=470d8216
DTITLE=Slim Whitman - Portrait Of The Artist
DYEAR=1993
DGENRE=Country
TTITLE0=Cattle Call
TTITLE1=Rose Marie
TTITLE2=Una Paloma Blanca
TTITLE3=Indian Love Call
TTITLE4=Blue Eyes Crying In The Rain
TTITLE5=Love Song Of The Waterfall
TTITLE6=Sioux City Sue
TTITLE7=Send Me The Pillow You Dream On
TTITLE8=Careless Hands
TTITLE9=That Silver-Haired Daddy Of Mine
TTITLE10=North Wind
TTITLE11=Mexicali Rose
TTITLE12=It's A Sin To Tell A Lie
TTITLE13=I'll Take You Home Again Kathleen
TTITLE14=The Twelfth Of Never
TTITLE15=Something Beautiful To Remember
TTITLE16=China Doll
TTITLE17=Keep It A Secret
TTITLE18=It's No Sin
TTITLE19=Secret Love
TTITLE20=Singing Hills
TTITLE21=I Fall To Pieces
EXTD=
EXTT0=
EXTT1=
EXTT2=
EXTT3=
EXTT4=
EXTT5=
EXTT6=
EXTT7=
EXTT8=
EXTT9=
EXTT10=
EXTT11=
EXTT12=
EXTT13=
EXTT14=
EXTT15=
EXTT16=
EXTT17=
EXTT18=
EXTT19=
EXTT20=
EXTT21=
PLAYORDER=
